<mxfile host="app.diagrams.net" modified="2023-07-20T15:54:24.727Z" agent="Mozilla/5.0 (Macintosh; Intel Mac OS X 10.15; rv:109.0) Gecko/20100101 Firefox/115.0" etag="iwlPAoCUX3t1tovpIALf" version="21.6.3" type="github">
  <diagram id="C5RBs43oDa-KdzZeNtuy" name="Page-1">
    <mxGraphModel dx="954" dy="642" grid="1" gridSize="10" guides="1" tooltips="1" connect="1" arrows="1" fold="1" page="1" pageScale="1" pageWidth="827" pageHeight="1169" math="0" shadow="0">
      <root>
        <mxCell id="WIyWlLk6GJQsqaUBKTNV-0" />
        <mxCell id="WIyWlLk6GJQsqaUBKTNV-1" parent="WIyWlLk6GJQsqaUBKTNV-0" />
        <mxCell id="I-HRYapTJ19IXj3I7Lnx-9" value="" style="rounded=1;whiteSpace=wrap;html=1;" vertex="1" parent="WIyWlLk6GJQsqaUBKTNV-1">
          <mxGeometry x="155" y="15" width="90" height="50" as="geometry" />
        </mxCell>
        <mxCell id="I-HRYapTJ19IXj3I7Lnx-19" style="edgeStyle=orthogonalEdgeStyle;rounded=0;orthogonalLoop=1;jettySize=auto;html=1;entryX=0.5;entryY=0;entryDx=0;entryDy=0;exitX=0.5;exitY=1;exitDx=0;exitDy=0;" edge="1" parent="WIyWlLk6GJQsqaUBKTNV-1" source="I-HRYapTJ19IXj3I7Lnx-9" target="I-HRYapTJ19IXj3I7Lnx-11">
          <mxGeometry relative="1" as="geometry">
            <mxPoint x="200" y="90" as="sourcePoint" />
          </mxGeometry>
        </mxCell>
        <mxCell id="I-HRYapTJ19IXj3I7Lnx-10" value="START" style="text;html=1;strokeColor=none;fillColor=none;align=center;verticalAlign=middle;whiteSpace=wrap;rounded=0;" vertex="1" parent="WIyWlLk6GJQsqaUBKTNV-1">
          <mxGeometry x="175" y="27.5" width="50" height="25" as="geometry" />
        </mxCell>
        <mxCell id="I-HRYapTJ19IXj3I7Lnx-20" style="edgeStyle=orthogonalEdgeStyle;rounded=0;orthogonalLoop=1;jettySize=auto;html=1;entryX=0.5;entryY=0;entryDx=0;entryDy=0;" edge="1" parent="WIyWlLk6GJQsqaUBKTNV-1" source="I-HRYapTJ19IXj3I7Lnx-11" target="I-HRYapTJ19IXj3I7Lnx-13">
          <mxGeometry relative="1" as="geometry" />
        </mxCell>
        <mxCell id="I-HRYapTJ19IXj3I7Lnx-11" value="" style="rounded=1;whiteSpace=wrap;html=1;" vertex="1" parent="WIyWlLk6GJQsqaUBKTNV-1">
          <mxGeometry x="155" y="125" width="90" height="50" as="geometry" />
        </mxCell>
        <mxCell id="I-HRYapTJ19IXj3I7Lnx-12" value="A = 1.75" style="text;html=1;strokeColor=none;fillColor=none;align=center;verticalAlign=middle;whiteSpace=wrap;rounded=0;" vertex="1" parent="WIyWlLk6GJQsqaUBKTNV-1">
          <mxGeometry x="170" y="135" width="60" height="30" as="geometry" />
        </mxCell>
        <mxCell id="I-HRYapTJ19IXj3I7Lnx-21" style="edgeStyle=orthogonalEdgeStyle;rounded=0;orthogonalLoop=1;jettySize=auto;html=1;entryX=0.5;entryY=0;entryDx=0;entryDy=0;" edge="1" parent="WIyWlLk6GJQsqaUBKTNV-1" source="I-HRYapTJ19IXj3I7Lnx-13" target="I-HRYapTJ19IXj3I7Lnx-15">
          <mxGeometry relative="1" as="geometry" />
        </mxCell>
        <mxCell id="I-HRYapTJ19IXj3I7Lnx-13" value="" style="rounded=1;whiteSpace=wrap;html=1;" vertex="1" parent="WIyWlLk6GJQsqaUBKTNV-1">
          <mxGeometry x="155" y="220" width="90" height="50" as="geometry" />
        </mxCell>
        <mxCell id="I-HRYapTJ19IXj3I7Lnx-14" value="B = 2.18" style="text;html=1;strokeColor=none;fillColor=none;align=center;verticalAlign=middle;whiteSpace=wrap;rounded=0;" vertex="1" parent="WIyWlLk6GJQsqaUBKTNV-1">
          <mxGeometry x="170" y="230" width="60" height="30" as="geometry" />
        </mxCell>
        <mxCell id="I-HRYapTJ19IXj3I7Lnx-24" style="edgeStyle=orthogonalEdgeStyle;rounded=0;orthogonalLoop=1;jettySize=auto;html=1;entryX=0.5;entryY=0.26;entryDx=0;entryDy=0;entryPerimeter=0;" edge="1" parent="WIyWlLk6GJQsqaUBKTNV-1" source="I-HRYapTJ19IXj3I7Lnx-15" target="I-HRYapTJ19IXj3I7Lnx-18">
          <mxGeometry relative="1" as="geometry" />
        </mxCell>
        <mxCell id="I-HRYapTJ19IXj3I7Lnx-15" value="" style="rounded=1;whiteSpace=wrap;html=1;" vertex="1" parent="WIyWlLk6GJQsqaUBKTNV-1">
          <mxGeometry x="155" y="315" width="90" height="50" as="geometry" />
        </mxCell>
        <mxCell id="I-HRYapTJ19IXj3I7Lnx-16" value="Multiply =&amp;nbsp; A * B" style="text;html=1;strokeColor=none;fillColor=none;align=center;verticalAlign=middle;whiteSpace=wrap;rounded=0;" vertex="1" parent="WIyWlLk6GJQsqaUBKTNV-1">
          <mxGeometry x="170" y="325" width="60" height="30" as="geometry" />
        </mxCell>
        <mxCell id="I-HRYapTJ19IXj3I7Lnx-29" style="edgeStyle=orthogonalEdgeStyle;rounded=0;orthogonalLoop=1;jettySize=auto;html=1;entryX=0.5;entryY=0;entryDx=0;entryDy=0;" edge="1" parent="WIyWlLk6GJQsqaUBKTNV-1" source="I-HRYapTJ19IXj3I7Lnx-18" target="I-HRYapTJ19IXj3I7Lnx-26">
          <mxGeometry relative="1" as="geometry" />
        </mxCell>
        <mxCell id="I-HRYapTJ19IXj3I7Lnx-18" value="" style="shape=tape;whiteSpace=wrap;html=1;" vertex="1" parent="WIyWlLk6GJQsqaUBKTNV-1">
          <mxGeometry x="150" y="410" width="100" height="80" as="geometry" />
        </mxCell>
        <mxCell id="I-HRYapTJ19IXj3I7Lnx-25" value="Multiply" style="text;html=1;strokeColor=none;fillColor=none;align=center;verticalAlign=middle;whiteSpace=wrap;rounded=0;" vertex="1" parent="WIyWlLk6GJQsqaUBKTNV-1">
          <mxGeometry x="170" y="435" width="60" height="30" as="geometry" />
        </mxCell>
        <mxCell id="I-HRYapTJ19IXj3I7Lnx-26" value="" style="rounded=1;whiteSpace=wrap;html=1;" vertex="1" parent="WIyWlLk6GJQsqaUBKTNV-1">
          <mxGeometry x="150" y="525" width="100" height="55" as="geometry" />
        </mxCell>
        <mxCell id="I-HRYapTJ19IXj3I7Lnx-27" value="END" style="text;html=1;strokeColor=none;fillColor=none;align=center;verticalAlign=middle;whiteSpace=wrap;rounded=0;" vertex="1" parent="WIyWlLk6GJQsqaUBKTNV-1">
          <mxGeometry x="170" y="537.5" width="60" height="30" as="geometry" />
        </mxCell>
      </root>
    </mxGraphModel>
  </diagram>
</mxfile>
